<?xml version="1.0" standalone="no"?><!DOCTYPE svg PUBLIC "-//W3C//DTD SVG 1.1//EN" "http://www.w3.org/Graphics/SVG/1.1/DTD/svg11.dtd"><svg t="1636198880453" class="icon" viewBox="0 0 1024 1024" version="1.1" xmlns="http://www.w3.org/2000/svg" p-id="725" xmlns:xlink="http://www.w3.org/1999/xlink" width="200" height="200"><defs><style type="text/css"></style></defs><path d="M512-54.14473701C199.92997357-54.14473701-54.14473701 199.92997357-54.14473701 512S199.92997357 1078.14473701 512 1078.14473701 1078.14473701 824.07002643 1078.14473701 512 824.07002643-54.14473701 512-54.14473701z m0 207.12612344c91.13549431 0 165.70089876 74.56540445 165.70089876 165.70089878s-74.56540445 165.70089876-165.70089876 165.70089877-165.70089876-74.56540445-165.70089876-165.70089877 74.56540445-165.70089876 165.70089876-165.70089878z m306.54666272 657.28023135c-30.37849854 41.42522469-151.8924901 129.7990378-306.54666272 129.7990378s-276.16816418-88.3738131-306.54666272-129.7990378c-11.04672615-13.80840865-13.80840865-27.61681602-11.04672614-41.42522469 38.66354348-143.60744516 168.46257998-243.02798442 317.59338886-243.02798444s278.92984669 99.42053925 317.59338886 243.02798444c2.76168122 13.80840865 0 27.61681602-11.04672614 41.42522469z" p-id="726"></path></svg>